<?xml version="1.0" standalone="no"?>
<!DOCTYPE svg PUBLIC "-//W3C//DTD SVG 20010904//EN"
 "http://www.w3.org/TR/2001/REC-SVG-20010904/DTD/svg10.dtd">
<svg version="1.0" xmlns="http://www.w3.org/2000/svg"
 width="387.000000pt" height="331.000000pt" viewBox="0 0 387.000000 331.000000"
 preserveAspectRatio="xMidYMid meet">

<g transform="translate(0.000000,331.000000) scale(0.100000,-0.100000)"
fill="#000000" stroke="none">
<path d="M0 1655 l0 -1655 1935 0 1935 0 0 1655 0 1655 -1935 0 -1935 0 0
-1655z m2643 1280 c128 -73 205 -131 317 -244 228 -229 361 -499 405 -821 49
-357 -43 -725 -256 -1024 -370 -519 -1053 -735 -1649 -520 -482 173 -829 578
-937 1094 -27 127 -24 411 5 542 64 293 189 526 392 729 58 58 139 129 180
158 92 64 199 125 207 118 7 -7 -39 -88 -78 -138 -64 -82 -73 -118 -73 -299
-1 -101 4 -181 11 -205 7 -22 15 -71 19 -109 4 -47 9 -65 15 -55 15 23 31 -10
24 -51 -16 -98 -26 -250 -24 -375 1 -77 2 -156 1 -175 0 -19 -1 -57 -1 -84 -1
-28 4 -53 10 -57 6 -4 9 -11 5 -17 -3 -6 2 -17 12 -24 24 -17 38 -44 45 -91 8
-49 84 -164 146 -219 44 -39 130 -89 206 -119 17 -6 25 -13 18 -16 -17 -6
-158 43 -203 72 l-40 25 0 -45 c0 -28 4 -44 10 -40 6 4 10 -5 10 -19 0 -14 4
-26 9 -26 5 0 11 -9 14 -21 4 -15 0 -23 -12 -26 -10 -3 -24 -16 -30 -29 -14
-32 -14 -47 0 -38 8 5 10 -1 7 -19 -4 -21 0 -27 18 -31 27 -7 50 -41 34 -51
-6 -4 -10 -3 -9 2 4 21 -3 31 -24 35 -16 3 -24 0 -24 -9 0 -8 6 -12 14 -9 7 3
13 1 13 -4 0 -5 7 -16 16 -24 14 -15 14 -16 -2 -16 -22 0 -10 -13 14 -15 10 0
29 -11 42 -23 27 -25 29 -26 65 -12 20 7 27 7 31 -4 5 -13 121 -35 147 -28 4
1 7 -3 7 -8 0 -6 8 -5 20 2 11 7 20 18 20 25 0 7 5 13 11 13 5 0 8 -4 5 -8 -3
-5 7 -7 22 -5 15 2 43 -4 63 -15 25 -13 43 -16 59 -10 17 6 23 4 27 -12 6 -21
35 -29 31 -8 -2 8 27 16 87 24 50 6 101 16 112 23 12 6 37 11 55 11 19 0 44 7
56 16 13 9 29 13 37 10 8 -3 15 0 15 6 0 7 5 6 15 -2 12 -10 16 -9 21 4 7 19
58 48 68 39 3 -4 6 -1 6 5 0 7 9 12 21 12 11 0 18 4 15 9 -3 4 2 15 12 24 92
85 186 184 184 194 -2 8 4 10 15 6 13 -5 11 1 -8 20 -28 29 -35 72 -15 96 9
12 8 13 -6 8 -10 -3 -18 -2 -18 3 0 6 4 10 9 10 5 0 7 13 5 29 -4 23 -1 31 16
36 26 8 72 68 65 86 -3 8 -22 15 -46 16 -22 2 -38 -1 -35 -6 3 -5 -1 -11 -9
-15 -8 -3 -15 -1 -15 4 0 6 -5 9 -11 8 -6 -2 -14 4 -16 12 -4 12 -3 12 5 1 13
-18 19 -4 20 43 1 22 7 43 13 46 6 4 13 36 15 71 2 35 10 100 16 144 13 85 14
274 3 470 -5 78 -3 136 4 165 7 25 14 61 16 80 3 19 13 64 22 100 32 123 11
346 -38 409 -11 13 -19 35 -19 48 0 38 -27 81 -63 99 -34 18 -93 64 -82 64 4
0 43 -20 88 -45z m-1032 -506 c-13 -5 -21 -15 -18 -22 4 -10 -3 -12 -24 -9
-16 2 -29 6 -29 9 0 7 64 32 80 32 8 0 4 -5 -9 -10z m197 -11 c-2 -7 9 -14 24
-16 15 -2 37 -14 50 -27 25 -27 44 -32 51 -12 3 6 6 2 6 -10 1 -16 7 -23 22
-23 11 0 17 -4 14 -10 -7 -12 21 -61 33 -59 26 4 37 -4 39 -28 1 -24 63 -97
63 -74 0 6 -8 15 -17 20 -10 6 -14 11 -10 11 4 0 3 9 -3 20 -9 17 -8 20 7 20
10 0 25 -5 33 -10 12 -8 12 -10 -5 -10 l-20 -1 20 -11 c47 -26 68 -68 34 -68
-24 0 -53 -26 -44 -40 3 -6 -1 -7 -10 -4 -9 4 -14 13 -11 20 3 8 1 14 -4 14
-13 0 -13 -56 0 -80 5 -10 24 -21 41 -25 24 -5 35 -2 50 14 11 12 24 19 30 16
5 -4 9 -1 9 6 0 9 15 10 58 4 96 -12 191 -14 197 -4 4 5 21 9 38 9 18 0 27 4
21 8 -13 9 -26 42 -16 42 4 0 8 9 9 20 1 11 -3 19 -9 17 -6 -1 -13 4 -15 11
-4 9 5 8 30 -4 35 -17 74 -13 62 6 -3 5 3 10 14 10 15 0 21 7 22 23 0 12 3 16
6 10 2 -7 11 -13 18 -13 21 0 25 -35 25 -216 0 -188 -8 -227 -47 -218 -28 7
-66 -13 -59 -32 3 -8 1 -14 -4 -14 -5 0 -11 8 -13 18 -4 13 -5 12 -6 -5 0 -12
-6 -25 -12 -28 -6 -4 -7 -19 -4 -36 6 -26 4 -29 -19 -29 -16 0 -26 -6 -26 -15
0 -8 -5 -15 -11 -15 -5 0 -7 -4 -4 -10 3 -5 1 -10 -4 -10 -6 0 -11 -5 -11 -11
0 -5 3 -8 8 -6 4 3 5 -15 3 -39 -2 -34 -7 -44 -21 -44 -11 0 -21 -11 -25 -27
l-8 -28 -7 33 c-4 18 -6 41 -3 51 3 12 -8 29 -33 50 -30 24 -48 31 -82 31 -24
0 -66 10 -93 21 -40 17 -49 26 -47 43 2 12 8 24 13 28 6 5 3 8 -6 8 -9 0 -19
9 -22 20 -8 29 -21 25 -77 -25 l-51 -46 -56 51 c-30 27 -59 50 -64 50 -6 0 -8
-18 -4 -45 7 -41 5 -46 -26 -75 -18 -16 -41 -30 -51 -30 -9 0 -20 -5 -23 -10
-5 -8 -12 -7 -23 2 -12 10 -14 10 -8 1 10 -18 -9 -16 -24 2 -7 8 -18 15 -24
14 -7 0 -6 -2 2 -6 6 -2 9 -9 6 -14 -3 -6 -11 -5 -20 2 -21 17 -61 -14 -99
-77 -27 -44 -32 -48 -52 -39 -12 5 -30 25 -39 45 -9 19 -21 43 -25 52 -5 10
-9 27 -9 38 0 11 -3 20 -7 20 -5 0 -19 3 -32 7 -16 4 -22 3 -17 -5 15 -25 -13
-20 -30 6 -9 15 -27 36 -38 47 -38 36 -70 98 -77 149 -13 87 21 391 51 463 6
15 15 20 29 16 12 -3 21 -10 21 -15 0 -5 4 -7 9 -4 5 3 11 -1 15 -9 3 -8 16
-15 28 -15 19 0 20 -2 8 -10 -12 -8 -12 -10 -1 -10 11 0 11 -3 0 -16 -20 -25
0 -29 103 -25 51 2 136 3 188 2 52 -1 105 1 116 4 21 5 41 45 23 45 -5 0 -9
-6 -10 -12 0 -7 -4 -3 -9 10 -5 12 -14 22 -20 22 -5 0 -10 7 -10 16 0 9 -9 18
-20 21 -11 3 -20 10 -20 17 0 8 -2 8 -8 0 -4 -7 -24 -14 -45 -17 -35 -4 -38
-3 -35 17 2 14 20 30 53 47 27 14 51 33 53 42 2 9 10 17 18 17 8 0 13 -6 12
-12z m-58 -18 c0 -5 -5 -10 -11 -10 -5 0 -7 5 -4 10 3 6 8 10 11 10 2 0 4 -4
4 -10z m-185 -20 c-11 -5 -31 -8 -45 -8 l-25 0 25 8 c14 4 34 8 45 8 l20 1
-20 -9z m473 -25 c-1 -14 -6 -25 -10 -25 -4 0 -8 11 -8 25 0 14 4 25 10 25 5
0 9 -11 8 -25z m-400 3 c-4 -19 -30 -37 -55 -38 -12 0 -23 -4 -25 -9 -1 -5
-15 -13 -31 -16 -21 -6 -26 -4 -22 6 6 16 51 39 76 39 9 0 22 7 29 15 15 18
31 20 28 3z m-41 -54 c-3 -3 -12 -4 -19 -1 -8 3 -5 6 6 6 11 1 17 -2 13 -5z
m703 -119 c0 -8 -9 -15 -20 -15 -20 0 -26 11 -13 23 12 13 33 7 33 -8z m78 -5
c15 0 15 2 2 10 -11 7 -6 10 21 10 25 0 39 -5 43 -16 10 -26 1 -28 -60 -16
-31 7 -60 9 -65 6 -5 -3 -9 2 -9 10 0 12 5 14 26 6 14 -6 33 -10 42 -10z
m-175 3 c-7 -2 -19 -2 -25 0 -7 3 -2 5 12 5 14 0 19 -2 13 -5z m47 3 c0 -3 -4
-8 -10 -11 -5 -3 -10 -1 -10 4 0 6 5 11 10 11 6 0 10 -2 10 -4z m-40 -32 c0
-2 -7 -4 -15 -4 -8 0 -15 4 -15 10 0 5 7 7 15 4 8 -4 15 -8 15 -10z m-183
-620 c3 1 7 -7 9 -17 1 -10 -2 -14 -8 -11 -6 4 -17 -2 -25 -12 -13 -18 -15
-18 -24 -1 -6 9 -15 17 -20 17 -6 0 -7 -4 -4 -10 3 -5 -2 -10 -12 -10 -14 0
-19 7 -17 28 1 15 2 27 3 28 0 0 21 -2 46 -6 25 -4 48 -6 52 -6z m-217 -25 c0
-5 -9 -9 -20 -9 -13 0 -18 5 -14 14 6 15 34 11 34 -5z m65 1 c2 -3 -1 -7 -8
-7 -7 0 -20 -4 -29 -8 -13 -5 -15 -2 -11 13 3 14 11 18 24 15 11 -3 21 -9 24
-13z m-132 -53 c23 2 68 -1 99 -8 37 -7 62 -8 70 -2 20 14 77 16 93 3 8 -7 29
-9 49 -6 20 3 38 1 41 -5 4 -5 19 -7 34 -4 15 3 46 2 68 -3 22 -5 47 -5 56 -1
11 6 16 3 20 -12 7 -27 -6 -62 -33 -89 -12 -12 -19 -27 -17 -33 6 -18 -32 -67
-53 -67 -12 0 -21 -10 -25 -30 -4 -16 -13 -30 -21 -30 -9 0 -14 -11 -14 -31 0
-17 -4 -28 -10 -24 -5 3 -10 1 -10 -4 0 -6 -5 -11 -11 -11 -5 0 -7 5 -4 10 3
6 1 10 -4 10 -6 0 -11 -4 -11 -9 0 -5 -13 -16 -29 -24 -32 -16 -41 -9 -41 34
0 10 -5 19 -10 19 -6 0 -9 -5 -8 -12 2 -6 -5 -14 -15 -16 -16 -3 -17 1 -12 31
6 33 6 34 -23 29 -18 -2 -35 2 -45 12 -8 9 -31 16 -51 16 -34 0 -65 28 -49 44
3 3 1 6 -5 6 -6 0 -14 9 -17 21 -4 11 -18 24 -31 29 -13 5 -24 13 -23 17 1 5
0 13 -1 18 -1 6 -1 25 0 44 1 27 -1 33 -14 28 -19 -8 -19 -9 -4 34 6 18 13 28
15 22 3 -7 20 -9 46 -6z m-186 -79 c-3 -7 -5 -2 -5 12 0 14 2 19 5 13 2 -7 2
-19 0 -25z m33 -23 c0 -8 -7 -15 -15 -15 -9 0 -12 6 -9 15 4 8 10 15 15 15 5
0 9 -7 9 -15z m1048 -160 c-3 -3 -9 2 -12 12 -6 14 -5 15 5 6 7 -7 10 -15 7
-18z m-1163 -133 c-3 -3 -20 9 -38 27 l-32 34 38 -28 c21 -15 35 -30 32 -33z"/>
<path d="M1031 1284 c0 -11 3 -14 6 -6 3 7 2 16 -1 19 -3 4 -6 -2 -5 -13z"/>
<path d="M993 1253 c-7 -2 -13 -9 -13 -14 0 -4 7 -6 15 -3 9 4 15 0 15 -7 0
-11 3 -11 10 1 18 28 7 37 -27 23z"/>
<path d="M2735 1250 c-3 -5 -2 -10 4 -10 5 0 13 5 16 10 3 6 2 10 -4 10 -5 0
-13 -4 -16 -10z"/>
<path d="M946 1224 c-4 -9 -4 -19 -1 -22 2 -3 7 3 11 12 4 9 4 19 1 22 -2 3
-7 -3 -11 -12z"/>
<path d="M920 1188 c0 -5 -4 -7 -8 -4 -5 3 -8 -4 -7 -14 1 -22 15 -40 15 -21
0 7 5 9 10 6 6 -3 10 0 10 9 0 8 6 16 12 18 7 3 2 7 -10 10 -12 4 -22 2 -22
-4z"/>
<path d="M1157 947 c-22 -23 -26 -32 -16 -38 10 -6 7 -11 -11 -18 -16 -6 -19
-10 -8 -10 9 -1 21 -14 27 -31 5 -16 12 -30 15 -30 3 0 3 7 0 14 -6 16 25 65
41 66 6 0 10 11 10 24 0 13 -2 22 -4 20 -3 -3 -10 4 -15 14 -10 18 -13 17 -39
-11z"/>
<path d="M1400 681 c0 -6 4 -12 8 -15 5 -3 9 1 9 9 0 8 -4 15 -9 15 -4 0 -8
-4 -8 -9z"/>
<path d="M1435 630 c-4 -6 3 -10 14 -10 25 0 27 6 6 13 -8 4 -17 2 -20 -3z"/>
<path d="M1560 2160 c0 -4 -11 -13 -25 -20 -29 -16 -32 -41 -7 -62 19 -17 16
-16 130 -24 57 -4 82 -3 82 5 0 7 20 11 50 11 36 0 50 4 50 14 0 30 -14 48
-52 67 -33 17 -56 20 -134 18 -52 -2 -94 -6 -94 -9z m70 -60 c0 -5 -2 -10 -4
-10 -3 0 -8 5 -11 10 -3 6 -1 10 4 10 6 0 11 -4 11 -10z"/>
<path d="M2070 2150 c0 -5 5 -10 11 -10 5 0 7 5 4 10 -3 6 -8 10 -11 10 -2 0
-4 -4 -4 -10z"/>
<path d="M2158 1814 c2 -13 8 -24 13 -24 14 0 10 37 -4 43 -10 4 -13 -2 -9
-19z"/>
<path d="M1920 1440 c0 -5 5 -10 11 -10 5 0 7 5 4 10 -3 6 -8 10 -11 10 -2 0
-4 -4 -4 -10z"/>
<path d="M1957 1342 c-24 -27 -22 -78 3 -85 11 -3 20 -1 20 3 0 4 9 6 20 3 12
-3 29 2 39 11 10 9 21 13 25 9 4 -4 6 10 4 32 -3 40 -3 40 -49 43 -34 2 -49
-2 -62 -16z"/>
</g>
</svg>
